<?xml version="1.0" encoding="utf-8"?>
<!-- Generator: Adobe Illustrator 18.0.0, SVG Export Plug-In . SVG Version: 6.00 Build 0)  -->
<!DOCTYPE svg PUBLIC "-//W3C//DTD SVG 1.1//EN" "http://www.w3.org/Graphics/SVG/1.1/DTD/svg11.dtd">
<svg version="1.1" id="Layer_1" xmlns="http://www.w3.org/2000/svg" xmlns:xlink="http://www.w3.org/1999/xlink" x="0px" y="0px"
	 viewBox="0 0 182 330.6" enable-background="new 0 0 182 330.6" xml:space="preserve">
<ellipse fill="#998675" cx="151.7" cy="294.1" rx="14.3" ry="15"/>
<path fill="#ED1E79" d="M65.5,244.6c-15,12-36,41-28,68c7,23.5,107.5,25,111.5-2c5.2-35-19-61.5-31-71
	C105.1,229.4,80.5,232.6,65.5,244.6z"/>
<path fill="#ED1E79" d="M131.1,9.2c-23.8,14.9-29.8,91.2-29.8,91.2l24.7,15.8c7.7-18.4,46.1-57.1,47.5-81.4
	C174.8,12.2,155-5.8,131.1,9.2z M160.8,41.6c-2.5,19.1-30.4,46.4-36.4,60.2l-13.9-9.9c0,0,9.6-59.3,25.2-68.7
	C151.3,13.6,163.2,23.8,160.8,41.6z"/>
<path fill="#FFC7A8" d="M135.6,23.1c-15.6,9.5-25.2,68.7-25.2,68.7l13.9,9.9c6-13.8,33.9-41.1,36.4-60.2
	C163.2,23.8,151.3,13.6,135.6,23.1z"/>
<path fill="#ED1E79" d="M60.8,10.6C41.9-12.1,10,4.6,12,33.1c2.1,29.4,33.5,65.7,39,85.2l28.2-12.1C79.1,106.2,80.5,34.1,60.8,10.6z
	 M52,98.1c-3.4-12.1-28.2-44.6-28.5-63c-0.2-13,19.9-26,31.7-11.8c12.2,14.6,13.3,66.3,13.3,66.3L52,98.1z"/>
<path fill="#FFC7A8" d="M23.5,35.1C23.8,53.5,48.6,86,52,98.1l16.5-8.5c0,0-1.1-51.7-13.3-66.3C43.4,9.2,23.3,22.1,23.5,35.1z"/>
<path fill="#998675" d="M181,189.3c6.5,39.3-31,61-52.7,67.3c-21.7,6.3-45.7,7.7-76.3,0.7s-57-33.2-51.5-64.7
	c5.2-30,6.7-40.5,10.8-60c4.2-19.5,21-36.5,34-43.3c22.7-12,61.7-13,83.3-3c18.3,8.5,32.8,21.5,39.3,45.7
	C174,154.1,176.5,162.3,181,189.3z"/>
<circle fill="#D4145A" cx="46.7" cy="177.6" r="11.3"/>
<circle fill="#D4145A" cx="134.9" cy="177.6" r="11.3"/>
<path fill="#ED1E79" d="M78,202.1c3.8-4.4,26.8-5.2,30.3,0.9c2.9,5-10,14.5-15.8,14.6C87,217.8,73,207.7,78,202.1z"/>
<path fill="#D4145A" d="M58,148.4c0,2.3-1.9,4.3-4.3,4.3H36.2c-2.3,0-4.2-1.9-4.2-4.3v-0.5c0-2.3,1.9-4.3,4.2-4.3h17.5
	c2.3,0,4.3,1.9,4.3,4.3V148.4z"/>
<path fill="#D4145A" d="M148,148.4c0,2.3-1.9,4.3-4.3,4.3h-17.5c-2.3,0-4.3-1.9-4.3-4.3v-0.5c0-2.3,1.9-4.3,4.3-4.3h17.5
	c2.3,0,4.3,1.9,4.3,4.3V148.4z"/>
</svg>
