<svg version="1.1" id="left-ear" xmlns="http://www.w3.org/2000/svg" xmlns:xlink="http://www.w3.org/1999/xlink" x="0px" y="0px"
	 viewBox="0 0 68 119" enable-background="new 0 0 68 119" xml:space="preserve">
<g>
	<path fill="#FFFFFF" d="M49.3,11C30.4-11.8-1.6,5,0.4,33.5c2.1,29.4,33.5,65.7,39,85.2l28.2-12.1C67.6,106.6,68.9,34.5,49.3,11z
		 M40.4,98.5C37,86.3,12.3,53.8,12,35.5c-0.2-13,19.9-26,31.7-11.8C55.9,38.3,56.9,90,56.9,90L40.4,98.5z"/>
	<path fill="#FFC7A8" d="M12,35.5c0.3,18.4,25.1,50.8,28.5,63L56.9,90c0,0-1.1-51.7-13.3-66.3C31.8,9.5,11.8,22.5,12,35.5z"/>
</g>
</svg>


