<svg version="1.1" id="right-ear" xmlns="http://www.w3.org/2000/svg" xmlns:xlink="http://www.w3.org/1999/xlink" x="0px" y="0px"
	 viewBox="0 0 73 113" enable-background="new 0 0 73 113" xml:space="preserve">
<g>
	<path fill="#FFFFFF" d="M30.2,5.7C6.4,20.6,0.4,97,0.4,97l24.7,15.8c7.7-18.4,46.1-57.1,47.5-81.4C73.9,8.7,54.1-9.3,30.2,5.7z
		 M59.9,38.1c-2.5,19.1-30.4,46.4-36.4,60.2L9.5,88.4c0,0,9.6-59.3,25.2-68.7C50.4,10.1,62.2,20.4,59.9,38.1z"/>
	<path fill="#FFC7A8" d="M34.7,19.6C19.1,29.1,9.5,88.4,9.5,88.4l13.9,9.9c6-13.8,33.9-41.1,36.4-60.2
		C62.2,20.4,50.4,10.1,34.7,19.6z"/>
</g>
</svg>


